<?xml version="1.0" standalone="no"?>
<!DOCTYPE svg PUBLIC "-//W3C//DTD SVG 20010904//EN"
 "http://www.w3.org/TR/2001/REC-SVG-20010904/DTD/svg10.dtd">
<svg version="1.0" xmlns="http://www.w3.org/2000/svg"
 width="128.000000pt" height="128.000000pt" viewBox="0 0 128.000000 128.000000"
 preserveAspectRatio="xMidYMid meet">

<g transform="translate(0.000000,128.000000) scale(0.100000,-0.100000)"
fill="#ffffff" stroke="none">
<path d="M540 1135 c-83 -23 -159 -75 -212 -144 -60 -78 -82 -149 -76 -245 6
-83 29 -135 99 -219 31 -37 51 -71 55 -95 10 -65 16 -76 57 -113 35 -33 38
-39 27 -59 -9 -16 -9 -25 -1 -33 6 -6 11 -24 11 -39 0 -18 7 -31 18 -35 9 -4
29 -19 43 -34 48 -51 139 -45 169 11 6 11 20 20 30 20 23 0 22 -4 24 78 1 59
4 65 38 96 36 34 41 43 53 118 4 26 21 54 55 91 71 78 100 145 100 233 0 120
-50 220 -145 294 -100 77 -232 106 -345 75z m67 -11 c-3 -3 -12 -4 -19 -1 -8
3 -5 6 6 6 11 1 17 -2 13 -5z m-163 -64 c-69 -45 -103 -85 -139 -162 -14 -29
-25 -47 -25 -40 0 24 41 100 78 142 35 42 115 100 136 100 6 0 -17 -18 -50
-40z m413 -2 c71 -48 133 -138 148 -213 3 -16 -4 -6 -15 24 -31 85 -99 164
-172 202 -21 11 -38 21 -38 24 0 8 35 -8 77 -37z m-110 14 c51 -18 144 -81
137 -93 -2 -4 8 -28 22 -54 19 -33 28 -67 32 -115 5 -75 -7 -125 -45 -183 -30
-47 -20 -64 13 -22 34 42 55 89 64 144 l8 46 1 -42 c1 -56 -29 -123 -82 -181
-54 -57 -77 -101 -77 -143 0 -41 -25 -69 -62 -69 -26 0 -28 3 -28 39 0 39 -11
55 -39 56 -8 0 -16 6 -19 14 -3 8 0 11 6 8 14 -9 34 18 30 40 -2 10 -14 23
-27 29 -23 12 -23 12 13 24 42 13 66 43 66 81 0 31 -46 77 -110 109 -47 24
-67 54 -49 76 18 22 47 17 75 -13 20 -22 29 -25 42 -17 52 33 -2 94 -83 94
-38 0 -52 -5 -76 -29 -54 -54 -36 -96 71 -166 39 -24 70 -51 70 -59 0 -45
-104 -44 -120 0 -7 19 -16 25 -33 22 -54 -8 -18 -89 47 -104 l31 -7 -31 -9
c-37 -10 -50 -34 -30 -57 13 -14 13 -19 0 -35 -8 -11 -14 -37 -14 -58 0 -35
-2 -38 -27 -38 -36 0 -63 27 -63 62 0 42 -22 87 -67 138 -66 74 -87 124 -87
205 0 92 34 164 110 234 94 86 215 113 331 73z m270 -314 c-3 -7 -5 -2 -5 12
0 14 2 19 5 13 2 -7 2 -19 0 -25z m-652 -208 c10 -11 16 -20 13 -20 -3 0 -13
9 -23 20 -10 11 -16 20 -13 20 3 0 13 -9 23 -20z m536 -23 l-34 -32 29 37 c15
20 30 35 33 32 3 -2 -10 -19 -28 -37z m-238 -24 c-13 -2 -35 -2 -50 0 -16 2
-5 4 22 4 28 0 40 -2 28 -4z m-33 -28 c0 -2 -9 -9 -20 -15 -16 -9 -18 -8 -14
5 5 13 34 22 34 10z m28 -78 c3 -32 0 -37 -17 -37 -17 0 -21 6 -21 33 0 61 33
63 38 4z m-168 -64 c0 -7 -39 17 -46 28 -3 6 5 3 20 -6 14 -10 26 -19 26 -22z
m345 27 c-3 -5 -16 -15 -28 -21 -19 -9 -19 -8 3 10 28 23 34 26 25 11z m-242
-27 c-7 -2 -19 -2 -25 0 -7 3 -2 5 12 5 14 0 19 -2 13 -5z m160 -58 c-3 -11
-196 -20 -220 -10 -8 2 -11 10 -8 15 9 14 231 9 228 -5z m-45 -32 c-32 -2 -86
-2 -120 0 -35 2 -9 3 57 3 66 0 94 -1 63 -3z m47 -33 c4 -6 -37 -10 -115 -10
-78 0 -119 4 -115 10 4 6 53 10 115 10 62 0 111 -4 115 -10z m-102 -37 c-24
-2 -62 -2 -85 0 -24 2 -5 4 42 4 47 0 66 -2 43 -4z m90 0 c-7 -2 -21 -2 -30 0
-10 3 -4 5 12 5 17 0 24 -2 18 -5z m-48 -43 c-24 -27 -86 -27 -110 0 -18 20
-17 20 55 20 72 0 73 0 55 -20z"/>
<path d="M567 1070 c-88 -23 -171 -90 -202 -164 -23 -54 -12 -55 19 -2 71 121
248 176 376 116 76 -36 84 -8 9 31 -46 23 -147 33 -202 19z"/>
<path d="M320 799 c-14 -50 2 -128 32 -162 22 -24 23 -29 -9 58 -10 27 -13 58
-9 93 7 62 1 67 -14 11z"/>
</g>
</svg>
